<mxfile host="app.diagrams.net" modified="2023-11-08T07:14:04.142Z" agent="Mozilla/5.0 (Windows NT 10.0; Win64; x64) AppleWebKit/537.36 (KHTML, like Gecko) Chrome/119.0.0.0 Safari/537.36 Edg/119.0.0.0" etag="8vckkbkkZUjzcW8j5bMm" version="22.0.8" type="github">
  <diagram name="第 1 页" id="ipI67Bxv_b7ADUd3dsh9">
    <mxGraphModel dx="962" dy="591" grid="0" gridSize="10" guides="0" tooltips="1" connect="1" arrows="1" fold="1" page="1" pageScale="1" pageWidth="827" pageHeight="1169" math="0" shadow="0">
      <root>
        <mxCell id="0" />
        <mxCell id="1" parent="0" />
        <mxCell id="rlDILn2o4a4pZMaIof26-12" value="&lt;font style=&quot;font-size: 36px;&quot;&gt;/&lt;/font&gt;" style="rounded=0;whiteSpace=wrap;html=1;" vertex="1" parent="1">
          <mxGeometry x="380" y="50" width="120" height="60" as="geometry" />
        </mxCell>
        <mxCell id="rlDILn2o4a4pZMaIof26-16" value="" style="endArrow=classic;html=1;rounded=0;entryX=0.5;entryY=0;entryDx=0;entryDy=0;exitX=0.5;exitY=1;exitDx=0;exitDy=0;" edge="1" parent="1" source="rlDILn2o4a4pZMaIof26-12" target="rlDILn2o4a4pZMaIof26-31">
          <mxGeometry width="50" height="50" relative="1" as="geometry">
            <mxPoint x="488" y="181" as="sourcePoint" />
            <mxPoint x="492" y="300" as="targetPoint" />
          </mxGeometry>
        </mxCell>
        <mxCell id="rlDILn2o4a4pZMaIof26-17" value="&lt;ul style=&quot;box-sizing: border-box; margin: 10px 0px; padding: 0px 0px 0px 1.5em; list-style-type: square; color: rgba(0, 0, 0, 0.9); font-family: &amp;quot;Microsoft YaHei&amp;quot;, Helvetica, &amp;quot;Meiryo UI&amp;quot;, &amp;quot;Malgun Gothic&amp;quot;, &amp;quot;Segoe UI&amp;quot;, &amp;quot;Trebuchet MS&amp;quot;, Monaco, monospace, Tahoma, STXihei, 华文细黑, STHeiti, &amp;quot;Helvetica Neue&amp;quot;, &amp;quot;Droid Sans&amp;quot;, &amp;quot;wenquanyi micro hei&amp;quot;, FreeSans, Arimo, Arial, SimSun, 宋体, Heiti, 黑体, sans-serif; font-size: 16px; text-align: start; background-color: rgb(255, 255, 255);&quot;&gt;&lt;li style=&quot;box-sizing: border-box; margin: 0px; padding: 0px;&quot;&gt;/:lang/doc&lt;/li&gt;&lt;li style=&quot;box-sizing: border-box; margin: 0px; padding: 0px;&quot;&gt;/:lang/tutorial&lt;/li&gt;&lt;li style=&quot;box-sizing: border-box; margin: 0px; padding: 0px;&quot;&gt;/:lang/intro&lt;/li&gt;&lt;li style=&quot;box-sizing: border-box; margin: 0px; padding: 0px;&quot;&gt;/about&lt;/li&gt;&lt;li style=&quot;box-sizing: border-box; margin: 0px; padding: 0px;&quot;&gt;/p/blog&lt;/li&gt;&lt;li style=&quot;box-sizing: border-box; margin: 0px; padding: 0px;&quot;&gt;/p/related&lt;/li&gt;&lt;/ul&gt;" style="text;html=1;strokeColor=none;fillColor=none;align=center;verticalAlign=middle;whiteSpace=wrap;rounded=0;" vertex="1" parent="1">
          <mxGeometry x="24" y="31" width="160" height="150" as="geometry" />
        </mxCell>
        <mxCell id="rlDILn2o4a4pZMaIof26-18" value="" style="endArrow=classic;html=1;rounded=0;exitX=0.5;exitY=1;exitDx=0;exitDy=0;entryX=0.5;entryY=0;entryDx=0;entryDy=0;" edge="1" parent="1" source="rlDILn2o4a4pZMaIof26-12" target="rlDILn2o4a4pZMaIof26-21">
          <mxGeometry width="50" height="50" relative="1" as="geometry">
            <mxPoint x="494.9559999999999" y="192.00000000000006" as="sourcePoint" />
            <mxPoint x="380" y="273.82" as="targetPoint" />
          </mxGeometry>
        </mxCell>
        <mxCell id="rlDILn2o4a4pZMaIof26-20" value="" style="endArrow=classic;html=1;rounded=0;exitX=0.5;exitY=1;exitDx=0;exitDy=0;entryX=0.5;entryY=0;entryDx=0;entryDy=0;" edge="1" parent="1" source="rlDILn2o4a4pZMaIof26-12" target="rlDILn2o4a4pZMaIof26-34">
          <mxGeometry width="50" height="50" relative="1" as="geometry">
            <mxPoint x="493" y="195" as="sourcePoint" />
            <mxPoint x="617" y="285" as="targetPoint" />
          </mxGeometry>
        </mxCell>
        <mxCell id="rlDILn2o4a4pZMaIof26-21" value="&lt;font style=&quot;font-size: 24px;&quot;&gt;lang&lt;/font&gt;" style="rounded=0;whiteSpace=wrap;html=1;" vertex="1" parent="1">
          <mxGeometry x="200" y="290" width="110" height="50" as="geometry" />
        </mxCell>
        <mxCell id="rlDILn2o4a4pZMaIof26-24" value="" style="endArrow=classic;html=1;rounded=0;entryX=0.5;entryY=0;entryDx=0;entryDy=0;exitX=0.5;exitY=1;exitDx=0;exitDy=0;" edge="1" parent="1" source="rlDILn2o4a4pZMaIof26-21" target="rlDILn2o4a4pZMaIof26-28">
          <mxGeometry width="50" height="50" relative="1" as="geometry">
            <mxPoint x="371" y="325" as="sourcePoint" />
            <mxPoint x="279" y="430" as="targetPoint" />
          </mxGeometry>
        </mxCell>
        <mxCell id="rlDILn2o4a4pZMaIof26-25" value="" style="endArrow=classic;html=1;rounded=0;exitX=0.5;exitY=1;exitDx=0;exitDy=0;" edge="1" parent="1" source="rlDILn2o4a4pZMaIof26-21" target="rlDILn2o4a4pZMaIof26-30">
          <mxGeometry width="50" height="50" relative="1" as="geometry">
            <mxPoint x="373" y="337" as="sourcePoint" />
            <mxPoint x="456" y="427" as="targetPoint" />
          </mxGeometry>
        </mxCell>
        <mxCell id="rlDILn2o4a4pZMaIof26-26" value="" style="endArrow=classic;html=1;rounded=0;entryX=0.5;entryY=0;entryDx=0;entryDy=0;exitX=0.5;exitY=1;exitDx=0;exitDy=0;" edge="1" parent="1" source="rlDILn2o4a4pZMaIof26-21" target="rlDILn2o4a4pZMaIof26-29">
          <mxGeometry width="50" height="50" relative="1" as="geometry">
            <mxPoint x="372" y="338" as="sourcePoint" />
            <mxPoint x="368" y="436" as="targetPoint" />
          </mxGeometry>
        </mxCell>
        <mxCell id="rlDILn2o4a4pZMaIof26-28" value="&lt;font style=&quot;font-size: 24px;&quot;&gt;intro&lt;/font&gt;" style="rounded=0;whiteSpace=wrap;html=1;" vertex="1" parent="1">
          <mxGeometry x="30" y="480" width="100" height="50" as="geometry" />
        </mxCell>
        <mxCell id="rlDILn2o4a4pZMaIof26-29" value="&lt;font style=&quot;font-size: 24px;&quot;&gt;doc&lt;/font&gt;" style="rounded=0;whiteSpace=wrap;html=1;" vertex="1" parent="1">
          <mxGeometry x="180" y="490" width="120" height="50" as="geometry" />
        </mxCell>
        <mxCell id="rlDILn2o4a4pZMaIof26-30" value="&lt;font style=&quot;font-size: 24px;&quot;&gt;tutorail&lt;/font&gt;" style="rounded=0;whiteSpace=wrap;html=1;" vertex="1" parent="1">
          <mxGeometry x="350" y="490" width="120" height="50" as="geometry" />
        </mxCell>
        <mxCell id="rlDILn2o4a4pZMaIof26-31" value="&lt;font style=&quot;font-size: 24px;&quot;&gt;ablout&lt;/font&gt;" style="rounded=0;whiteSpace=wrap;html=1;" vertex="1" parent="1">
          <mxGeometry x="400" y="290" width="110" height="50" as="geometry" />
        </mxCell>
        <mxCell id="rlDILn2o4a4pZMaIof26-33" style="edgeStyle=orthogonalEdgeStyle;rounded=0;orthogonalLoop=1;jettySize=auto;html=1;exitX=0.5;exitY=1;exitDx=0;exitDy=0;" edge="1" parent="1" source="rlDILn2o4a4pZMaIof26-31" target="rlDILn2o4a4pZMaIof26-31">
          <mxGeometry relative="1" as="geometry" />
        </mxCell>
        <mxCell id="rlDILn2o4a4pZMaIof26-34" value="&lt;font style=&quot;font-size: 24px;&quot;&gt;p&lt;/font&gt;" style="rounded=0;whiteSpace=wrap;html=1;" vertex="1" parent="1">
          <mxGeometry x="610" y="280" width="110" height="50" as="geometry" />
        </mxCell>
        <mxCell id="rlDILn2o4a4pZMaIof26-37" value="&lt;font style=&quot;font-size: 24px;&quot;&gt;blog&lt;/font&gt;" style="rounded=0;whiteSpace=wrap;html=1;" vertex="1" parent="1">
          <mxGeometry x="490" y="480" width="110" height="60" as="geometry" />
        </mxCell>
        <mxCell id="rlDILn2o4a4pZMaIof26-39" value="" style="endArrow=classic;html=1;rounded=0;exitX=0.5;exitY=1;exitDx=0;exitDy=0;" edge="1" parent="1" source="rlDILn2o4a4pZMaIof26-34" target="rlDILn2o4a4pZMaIof26-37">
          <mxGeometry width="50" height="50" relative="1" as="geometry">
            <mxPoint x="315" y="302" as="sourcePoint" />
            <mxPoint x="365" y="252" as="targetPoint" />
          </mxGeometry>
        </mxCell>
        <mxCell id="rlDILn2o4a4pZMaIof26-40" value="" style="endArrow=classic;html=1;rounded=0;exitX=0.5;exitY=1;exitDx=0;exitDy=0;" edge="1" parent="1" source="rlDILn2o4a4pZMaIof26-34" target="rlDILn2o4a4pZMaIof26-41">
          <mxGeometry width="50" height="50" relative="1" as="geometry">
            <mxPoint x="315" y="302" as="sourcePoint" />
            <mxPoint x="776" y="473" as="targetPoint" />
          </mxGeometry>
        </mxCell>
        <mxCell id="rlDILn2o4a4pZMaIof26-41" value="&lt;font style=&quot;font-size: 24px;&quot;&gt;related&lt;/font&gt;" style="rounded=0;whiteSpace=wrap;html=1;" vertex="1" parent="1">
          <mxGeometry x="690" y="480" width="120" height="60" as="geometry" />
        </mxCell>
      </root>
    </mxGraphModel>
  </diagram>
</mxfile>
